<svg xmlns="http://www.w3.org/2000/svg" version="1.1" xmlns:xlink="http://www.w3.org/1999/xlink" xmlns:svgjs="http://svgjs.com/svgjs" width="1000" height="1000"><rect width="1000" height="1000" rx="200" ry="200" fill="#ffffff"></rect><g transform="matrix(1.5625,0,0,1.5625,95.9675304889679,98.57506465911865)"><svg xmlns="http://www.w3.org/2000/svg" version="1.1" xmlns:xlink="http://www.w3.org/1999/xlink" xmlns:svgjs="http://svgjs.com/svgjs" width="512" height="512"><svg width="512" height="512" viewBox="0 0 512 512" version="1.1" id="svg5" xml:space="preserve" inkscape:version="1.2.2 (b0a8486541, 2022-12-01)" sodipodi:docname="neuraception.svg" xmlns:inkscape="http://www.inkscape.org/namespaces/inkscape" xmlns:sodipodi="http://sodipodi.sourceforge.net/DTD/sodipodi-0.dtd" xmlns="http://www.w3.org/2000/svg" xmlns:svg="http://www.w3.org/2000/svg"><sodipodi:namedview id="namedview7" pagecolor="#ffffff" bordercolor="#000000" borderopacity="0.25" inkscape:showpageshadow="2" inkscape:pageopacity="0.0" inkscape:pagecheckerboard="0" inkscape:deskcolor="#d1d1d1" inkscape:document-units="px" showgrid="false" inkscape:zoom="1.1429387" inkscape:cx="44.184345" inkscape:cy="293.10407" inkscape:window-width="2560" inkscape:window-height="1552" inkscape:window-x="0" inkscape:window-y="0" inkscape:window-maximized="1" inkscape:current-layer="layer2"></sodipodi:namedview><defs id="defs2"></defs><g inkscape:groupmode="layer" id="layer2" inkscape:label="Layer 2" style="display:inline"><path id="path234" style="fill:#000000;stroke-width:1.1755" d="M 228.41951,82.491577 C 126.52589,98.097909 52.256518,194.64394 43.330992,283.13711 c -8.376536,83.05017 36.402134,160.74944 119.540588,160.47878 86.64149,-0.28207 164.32637,-57.86487 197.73894,-144.60721 37.71604,-97.91459 -4.88797,-158.69028 -4.88797,-158.69028 0,0 81.47443,1.33872 104.66086,-0.92754 23.18643,-2.26626 36.18822,-43.797307 5.96234,-54.580009 C 436.11986,74.028148 330.31313,66.88525 228.41951,82.491577 Z m 12.3152,55.540103 c 75.44665,1.04738 86.16195,55.79764 55.99241,150.79008 C 266.55757,383.81421 220.14981,424.17242 157.83439,413.2664 95.518957,402.36037 94.104278,348.80798 113.32607,266.66175 132.54788,184.51551 165.28809,136.98431 240.73471,138.03168 Z" sodipodi:nodetypes="zsssczzzsssss"></path><path style="fill:#000000;stroke-width:0.994987" d="m 141.23057,240.66767 c 13.25694,43.12361 103.42913,53.17817 141.32404,11.78913 -23.35542,106.06816 -65.90602,152.08495 -114.1727,145.89632 -48.2667,-6.18864 -65.2274,-50.00474 -27.15134,-157.68545 z" id="path351" sodipodi:nodetypes="cczc"></path></g><g inkscape:groupmode="layer" id="layer3" inkscape:label="Layer 3"></g></svg></svg></g></svg>